<?xml version="1.0" encoding="UTF-8" standalone="no"?>
<!DOCTYPE svg PUBLIC "-//W3C//DTD SVG 1.1//EN"
 "http://www.w3.org/Graphics/SVG/1.1/DTD/svg11.dtd">
<!-- Generated by graphviz version 2.38.0 (20140413.2041)
 -->
<!-- Title: controllers_diagram Pages: 1 -->
<svg width="618pt" height="465pt"
 viewBox="0.00 0.00 618.24 465.00" xmlns="http://www.w3.org/2000/svg" xmlns:xlink="http://www.w3.org/1999/xlink">
<g id="graph0" class="graph" transform="scale(1 1) rotate(0) translate(227.928 221.5)">
<title>controllers_diagram</title>
<polygon fill="none" stroke="none" points="-227.928,243.5 -227.928,-221.5 390.314,-221.5 390.314,243.5 -227.928,243.5"/>
<!-- _diagram_info -->
<g id="node1" class="node"><title>_diagram_info</title>
<text text-anchor="start" x="8.31226" y="148.9" font-family="Times,serif" font-size="13.00">Controllers diagram</text>
<text text-anchor="start" x="8.31226" y="161.9" font-family="Times,serif" font-size="13.00">Date: Jul 20 2016 &#45; 23:43</text>
<text text-anchor="start" x="8.31226" y="174.9" font-family="Times,serif" font-size="13.00">Migration version: 20160710060657</text>
<text text-anchor="start" x="8.31226" y="187.9" font-family="Times,serif" font-size="13.00">Generated by RailRoady 1.5.1</text>
<text text-anchor="start" x="8.31226" y="200.9" font-family="Times,serif" font-size="13.00">http://railroady.prestonlee.com</text>
</g>
<!-- Account::ProjectsController -->
<g id="node2" class="node"><title>Account::ProjectsController</title>
<path fill="none" stroke="black" d="M-211.928,223C-211.928,223 -62.0723,223 -62.0723,223 -56.0723,223 -50.0723,217 -50.0723,211 -50.0723,211 -50.0723,145 -50.0723,145 -50.0723,139 -56.0723,133 -62.0723,133 -62.0723,133 -211.928,133 -211.928,133 -217.928,133 -223.928,139 -223.928,145 -223.928,145 -223.928,211 -223.928,211 -223.928,217 -217.928,223 -211.928,223"/>
<text text-anchor="middle" x="-137" y="148.2" font-family="Times,serif" font-size="14.00">Account::ProjectsController</text>
<polyline fill="none" stroke="black" points="-223.928,155 -50.0723,155 "/>
<text text-anchor="start" x="-215.928" y="170.2" font-family="Times,serif" font-size="14.00">index</text>
<polyline fill="none" stroke="black" points="-223.928,177 -50.0723,177 "/>
<polyline fill="none" stroke="black" points="-223.928,201 -50.0723,201 "/>
<text text-anchor="start" x="-215.928" y="216.2" font-family="Times,serif" font-size="14.00">_layout</text>
</g>
<!-- Admin::ProjectsController -->
<g id="node3" class="node"><title>Admin::ProjectsController</title>
<path fill="none" stroke="black" d="M-83.6587,95C-83.6587,95 57.6587,95 57.6587,95 63.6587,95 69.6587,89 69.6587,83 69.6587,83 69.6587,-53 69.6587,-53 69.6587,-59 63.6587,-65 57.6587,-65 57.6587,-65 -83.6587,-65 -83.6587,-65 -89.6587,-65 -95.6587,-59 -95.6587,-53 -95.6587,-53 -95.6587,83 -95.6587,83 -95.6587,89 -89.6587,95 -83.6587,95"/>
<text text-anchor="middle" x="-13" y="-49.8" font-family="Times,serif" font-size="14.00">Admin::ProjectsController</text>
<polyline fill="none" stroke="black" points="-95.6587,-43 69.6587,-43 "/>
<text text-anchor="start" x="-87.6587" y="-27.8" font-family="Times,serif" font-size="14.00">destroy</text>
<text text-anchor="start" x="-87.6587" y="-13.8" font-family="Times,serif" font-size="14.00">edit</text>
<text text-anchor="start" x="-87.6587" y="0.2" font-family="Times,serif" font-size="14.00">index</text>
<text text-anchor="start" x="-87.6587" y="14.2" font-family="Times,serif" font-size="14.00">show</text>
<text text-anchor="start" x="-87.6587" y="28.2" font-family="Times,serif" font-size="14.00">update</text>
<polyline fill="none" stroke="black" points="-95.6587,35 69.6587,35 "/>
<polyline fill="none" stroke="black" points="-95.6587,59 69.6587,59 "/>
<text text-anchor="start" x="-87.6587" y="74.2" font-family="Times,serif" font-size="14.00">_layout</text>
<text text-anchor="start" x="-87.6587" y="88.2" font-family="Times,serif" font-size="14.00">project_params</text>
</g>
<!-- Admin::UsersController -->
<g id="node4" class="node"><title>Admin::UsersController</title>
<path fill="none" stroke="black" d="M-84.0483,-97C-84.0483,-97 44.0483,-97 44.0483,-97 50.0483,-97 56.0483,-103 56.0483,-109 56.0483,-109 56.0483,-203 56.0483,-203 56.0483,-209 50.0483,-215 44.0483,-215 44.0483,-215 -84.0483,-215 -84.0483,-215 -90.0483,-215 -96.0483,-209 -96.0483,-203 -96.0483,-203 -96.0483,-109 -96.0483,-109 -96.0483,-103 -90.0483,-97 -84.0483,-97"/>
<text text-anchor="middle" x="-20" y="-199.8" font-family="Times,serif" font-size="14.00">Admin::UsersController</text>
<polyline fill="none" stroke="black" points="-96.0483,-193 56.0483,-193 "/>
<text text-anchor="start" x="-88.0483" y="-177.8" font-family="Times,serif" font-size="14.00">index</text>
<text text-anchor="start" x="-88.0483" y="-163.8" font-family="Times,serif" font-size="14.00">to_admin</text>
<text text-anchor="start" x="-88.0483" y="-149.8" font-family="Times,serif" font-size="14.00">to_normal</text>
<polyline fill="none" stroke="black" points="-96.0483,-143 56.0483,-143 "/>
<polyline fill="none" stroke="black" points="-96.0483,-119 56.0483,-119 "/>
<text text-anchor="start" x="-88.0483" y="-103.8" font-family="Times,serif" font-size="14.00">_layout</text>
</g>
<!-- ApplicationController -->
<g id="node5" class="node"><title>ApplicationController</title>
<path fill="none" stroke="black" d="M140.034,-129C140.034,-129 313.966,-129 313.966,-129 319.966,-129 325.966,-135 325.966,-141 325.966,-141 325.966,-205 325.966,-205 325.966,-211 319.966,-217 313.966,-217 313.966,-217 140.034,-217 140.034,-217 134.034,-217 128.034,-211 128.034,-205 128.034,-205 128.034,-141 128.034,-141 128.034,-135 134.034,-129 140.034,-129"/>
<text text-anchor="middle" x="227" y="-201.8" font-family="Times,serif" font-size="14.00">ApplicationController</text>
<polyline fill="none" stroke="black" points="128.034,-195 325.966,-195 "/>
<text text-anchor="start" x="136.034" y="-179.8" font-family="Times,serif" font-size="14.00">admin_required</text>
<polyline fill="none" stroke="black" points="128.034,-173 325.966,-173 "/>
<text text-anchor="start" x="136.034" y="-157.8" font-family="Times,serif" font-size="14.00">configure_permitted_parameters</text>
<polyline fill="none" stroke="black" points="128.034,-151 325.966,-151 "/>
<text text-anchor="start" x="136.034" y="-135.8" font-family="Times,serif" font-size="14.00">_layout</text>
</g>
<!-- LandingpageController -->
<g id="node6" class="node"><title>LandingpageController</title>
<path fill="none" stroke="black" d="M251.686,239C251.686,239 374.314,239 374.314,239 380.314,239 386.314,233 386.314,227 386.314,227 386.314,161 386.314,161 386.314,155 380.314,149 374.314,149 374.314,149 251.686,149 251.686,149 245.686,149 239.686,155 239.686,161 239.686,161 239.686,227 239.686,227 239.686,233 245.686,239 251.686,239"/>
<text text-anchor="middle" x="313" y="164.2" font-family="Times,serif" font-size="14.00">LandingpageController</text>
<polyline fill="none" stroke="black" points="239.686,171 386.314,171 "/>
<text text-anchor="start" x="247.686" y="186.2" font-family="Times,serif" font-size="14.00">index</text>
<polyline fill="none" stroke="black" points="239.686,193 386.314,193 "/>
<polyline fill="none" stroke="black" points="239.686,217 386.314,217 "/>
<text text-anchor="start" x="247.686" y="232.2" font-family="Times,serif" font-size="14.00">_layout</text>
</g>
<!-- ProjectsController -->
<g id="node7" class="node"><title>ProjectsController</title>
<path fill="none" stroke="black" d="M107.676,95C107.676,95 202.324,95 202.324,95 208.324,95 214.324,89 214.324,83 214.324,83 214.324,-81 214.324,-81 214.324,-87 208.324,-93 202.324,-93 202.324,-93 107.676,-93 107.676,-93 101.676,-93 95.6758,-87 95.6758,-81 95.6758,-81 95.6758,83 95.6758,83 95.6758,89 101.676,95 107.676,95"/>
<text text-anchor="middle" x="155" y="-77.8" font-family="Times,serif" font-size="14.00">ProjectsController</text>
<polyline fill="none" stroke="black" points="95.6758,-71 214.324,-71 "/>
<text text-anchor="start" x="103.676" y="-55.8" font-family="Times,serif" font-size="14.00">index</text>
<text text-anchor="start" x="103.676" y="-41.8" font-family="Times,serif" font-size="14.00">destroy</text>
<text text-anchor="start" x="103.676" y="-27.8" font-family="Times,serif" font-size="14.00">edit</text>
<text text-anchor="start" x="103.676" y="-13.8" font-family="Times,serif" font-size="14.00">create</text>
<text text-anchor="start" x="103.676" y="0.2" font-family="Times,serif" font-size="14.00">new</text>
<text text-anchor="start" x="103.676" y="14.2" font-family="Times,serif" font-size="14.00">show</text>
<text text-anchor="start" x="103.676" y="28.2" font-family="Times,serif" font-size="14.00">update</text>
<polyline fill="none" stroke="black" points="95.6758,35 214.324,35 "/>
<polyline fill="none" stroke="black" points="95.6758,59 214.324,59 "/>
<text text-anchor="start" x="103.676" y="74.2" font-family="Times,serif" font-size="14.00">_layout</text>
<text text-anchor="start" x="103.676" y="88.2" font-family="Times,serif" font-size="14.00">project_params</text>
</g>
</g>
</svg>
