<?xml version="1.0" encoding="UTF-8" standalone="no"?>
<!DOCTYPE svg PUBLIC "-//W3C//DTD SVG 1.1//EN"
 "http://www.w3.org/Graphics/SVG/1.1/DTD/svg11.dtd">
<!-- Generated by graphviz version 2.38.0 (20140413.2041)
 -->
<!-- Title: models_diagram Pages: 1 -->
<svg width="438pt" height="484pt"
 viewBox="0.00 0.00 437.97 484.00" xmlns="http://www.w3.org/2000/svg" xmlns:xlink="http://www.w3.org/1999/xlink">
<g id="graph0" class="graph" transform="scale(1 1) rotate(0) translate(4 480)">
<title>models_diagram</title>
<polygon fill="none" stroke="none" points="-4,4 -4,-480 433.966,-480 433.966,4 -4,4"/>
<!-- _diagram_info -->
<g id="node1" class="node"><title>_diagram_info</title>
<text text-anchor="start" x="8" y="-370.6" font-family="Times,serif" font-size="13.00">Models diagram</text>
<text text-anchor="start" x="8" y="-357.6" font-family="Times,serif" font-size="13.00">Date: Jul 20 2016 &#45; 23:43</text>
<text text-anchor="start" x="8" y="-344.6" font-family="Times,serif" font-size="13.00">Migration version: 20160710060657</text>
<text text-anchor="start" x="8" y="-331.6" font-family="Times,serif" font-size="13.00">Generated by RailRoady 1.5.1</text>
<text text-anchor="start" x="8" y="-318.6" font-family="Times,serif" font-size="13.00">http://railroady.prestonlee.com</text>
</g>
<!-- Project -->
<g id="node2" class="node"><title>Project</title>
<path fill="none" stroke="black" d="M269.682,-0.5C269.682,-0.5 385.693,-0.5 385.693,-0.5 391.693,-0.5 397.693,-6.5 397.693,-12.5 397.693,-12.5 397.693,-172.5 397.693,-172.5 397.693,-178.5 391.693,-184.5 385.693,-184.5 385.693,-184.5 269.682,-184.5 269.682,-184.5 263.682,-184.5 257.682,-178.5 257.682,-172.5 257.682,-172.5 257.682,-12.5 257.682,-12.5 257.682,-6.5 263.682,-0.5 269.682,-0.5"/>
<text text-anchor="middle" x="327.688" y="-169.3" font-family="Times,serif" font-size="14.00">Project</text>
<polyline fill="none" stroke="black" points="257.682,-162.5 397.693,-162.5 "/>
<text text-anchor="start" x="265.682" y="-147.3" font-family="Times,serif" font-size="14.00">owner_name :boolean</text>
<text text-anchor="start" x="265.682" y="-133.3" font-family="Times,serif" font-size="14.00">mastergoal :varchar</text>
<text text-anchor="start" x="265.682" y="-119.3" font-family="Times,serif" font-size="14.00">secondgoal :varchar</text>
<text text-anchor="start" x="265.682" y="-105.3" font-family="Times,serif" font-size="14.00">success :varchar</text>
<text text-anchor="start" x="265.682" y="-91.3" font-family="Times,serif" font-size="14.00">can :varchar</text>
<text text-anchor="start" x="265.682" y="-77.3" font-family="Times,serif" font-size="14.00">how :varchar</text>
<text text-anchor="start" x="265.682" y="-63.3" font-family="Times,serif" font-size="14.00">when :varchar</text>
<text text-anchor="start" x="265.682" y="-49.3" font-family="Times,serif" font-size="14.00">created_at :datetime</text>
<text text-anchor="start" x="265.682" y="-35.3" font-family="Times,serif" font-size="14.00">updated_at :datetime</text>
<text text-anchor="start" x="265.682" y="-21.3" font-family="Times,serif" font-size="14.00">user_id :integer</text>
<text text-anchor="start" x="265.682" y="-7.3" font-family="Times,serif" font-size="14.00">id :INTEGER</text>
</g>
<!-- User -->
<g id="node3" class="node"><title>User</title>
<path fill="none" stroke="black" d="M237.41,-221.5C237.41,-221.5 417.966,-221.5 417.966,-221.5 423.966,-221.5 429.966,-227.5 429.966,-233.5 429.966,-233.5 429.966,-463.5 429.966,-463.5 429.966,-469.5 423.966,-475.5 417.966,-475.5 417.966,-475.5 237.41,-475.5 237.41,-475.5 231.41,-475.5 225.41,-469.5 225.41,-463.5 225.41,-463.5 225.41,-233.5 225.41,-233.5 225.41,-227.5 231.41,-221.5 237.41,-221.5"/>
<text text-anchor="middle" x="327.688" y="-460.3" font-family="Times,serif" font-size="14.00">User</text>
<polyline fill="none" stroke="black" points="225.41,-453.5 429.966,-453.5 "/>
<text text-anchor="start" x="233.41" y="-438.3" font-family="Times,serif" font-size="14.00">users_count :integer</text>
<text text-anchor="start" x="233.41" y="-424.3" font-family="Times,serif" font-size="14.00">email :varchar</text>
<text text-anchor="start" x="233.41" y="-410.3" font-family="Times,serif" font-size="14.00">encrypted_password :varchar</text>
<text text-anchor="start" x="233.41" y="-396.3" font-family="Times,serif" font-size="14.00">reset_password_token :varchar</text>
<text text-anchor="start" x="233.41" y="-382.3" font-family="Times,serif" font-size="14.00">reset_password_sent_at :datetime</text>
<text text-anchor="start" x="233.41" y="-368.3" font-family="Times,serif" font-size="14.00">remember_created_at :datetime</text>
<text text-anchor="start" x="233.41" y="-354.3" font-family="Times,serif" font-size="14.00">sign_in_count :integer</text>
<text text-anchor="start" x="233.41" y="-340.3" font-family="Times,serif" font-size="14.00">current_sign_in_at :datetime</text>
<text text-anchor="start" x="233.41" y="-326.3" font-family="Times,serif" font-size="14.00">last_sign_in_at :datetime</text>
<text text-anchor="start" x="233.41" y="-312.3" font-family="Times,serif" font-size="14.00">current_sign_in_ip :varchar</text>
<text text-anchor="start" x="233.41" y="-298.3" font-family="Times,serif" font-size="14.00">last_sign_in_ip :varchar</text>
<text text-anchor="start" x="233.41" y="-284.3" font-family="Times,serif" font-size="14.00">created_at :datetime</text>
<text text-anchor="start" x="233.41" y="-270.3" font-family="Times,serif" font-size="14.00">updated_at :datetime</text>
<text text-anchor="start" x="233.41" y="-256.3" font-family="Times,serif" font-size="14.00">is_admin :boolean</text>
<text text-anchor="start" x="233.41" y="-242.3" font-family="Times,serif" font-size="14.00">name :varchar</text>
<text text-anchor="start" x="233.41" y="-228.3" font-family="Times,serif" font-size="14.00">id :INTEGER</text>
</g>
<!-- User&#45;&gt;Project -->
<g id="edge1" class="edge"><title>User&#45;&gt;Project</title>
<path fill="none" stroke="#5a0752" d="M327.688,-213.159C327.688,-206.999 327.688,-200.862 327.688,-194.806"/>
<ellipse fill="none" stroke="#5a0752" cx="327.688" cy="-217.244" rx="4" ry="4"/>
<polygon fill="#5a0752" stroke="#5a0752" points="327.688,-194.702 332.188,-184.702 327.688,-189.702 327.688,-184.702 327.688,-184.702 327.688,-184.702 327.688,-189.702 323.188,-184.702 327.688,-194.702 327.688,-194.702"/>
</g>
</g>
</svg>
